<svg xmlns="http://www.w3.org/2000/svg" xmlns:xlink="http://www.w3.org/1999/xlink" width="147" zoomAndPan="magnify" viewBox="0 0 110.25 89.999999" height="120" preserveAspectRatio="xMidYMid meet" version="1.0"><defs><clipPath id="9930e807a5"><path d="M 0 0.304688 L 109.503906 0.304688 L 109.503906 89.695312 L 0 89.695312 Z M 0 0.304688 " clip-rule="nonzero"/></clipPath><clipPath id="24fece3e26"><path d="M 31 9.242188 L 76 9.242188 L 76 82 L 31 82 Z M 31 9.242188 " clip-rule="nonzero"/></clipPath></defs><g clip-path="url(#9930e807a5)"><path fill="#ffffff" d="M 0 0.304688 L 109.503906 0.304688 L 109.503906 89.695312 L 0 89.695312 Z M 0 0.304688 " fill-opacity="1" fill-rule="nonzero"/><path fill="#ffffff" d="M 0 0.304688 L 109.503906 0.304688 L 109.503906 89.695312 L 0 89.695312 Z M 0 0.304688 " fill-opacity="1" fill-rule="nonzero"/></g><g clip-path="url(#24fece3e26)"><path fill="#000000" d="M 47.753906 34.660156 L 49.523438 37 C 49.605469 37.097656 49.722656 37.175781 49.859375 37.144531 C 49.949219 37.125 49.996094 37.046875 50.007812 36.960938 C 49.984375 36.558594 49.957031 36.160156 49.933594 35.757812 L 49.925781 34.726562 C 49.925781 33.863281 50.140625 32.945312 50.316406 32.140625 L 50.5 31.207031 L 50.5 31.152344 L 50.921875 28.894531 L 50.957031 28.894531 L 51.796875 29.664062 C 52.023438 29.878906 52.941406 30.804688 53.164062 30.851562 L 53.175781 30.851562 C 53.277344 30.855469 55.207031 29.148438 55.394531 28.933594 L 55.464844 28.996094 C 55.636719 29.859375 55.8125 30.726562 55.988281 31.589844 L 56.082031 32.125 C 56.292969 33.34375 56.542969 34.605469 56.433594 35.949219 L 56.351562 36.636719 C 56.351562 36.898438 56.359375 37.28125 56.714844 37.128906 C 57.011719 37 57.222656 36.539062 57.414062 36.296875 L 59.144531 34.074219 L 59.257812 33.898438 C 59.679688 33.203125 58.988281 33.261719 58.597656 32.953125 C 57.953125 32.433594 57.808594 30.996094 57.589844 30.214844 C 56.746094 27.214844 56.101562 24.125 55.417969 21.054688 C 55.265625 20.351562 55.136719 18.910156 54.734375 18.386719 C 54.410156 17.96875 52.121094 18.175781 51.976562 18.191406 C 51.507812 18.308594 51.304688 19.597656 51.265625 19.757812 C 51.195312 20.089844 51.054688 20.808594 51.054688 20.808594 C 51.027344 20.917969 50.984375 21.164062 50.976562 21.171875 C 50.972656 21.179688 50.8125 21.890625 50.785156 22.011719 C 50.792969 22.019531 50.429688 23.851562 50.289062 24.136719 C 50.296875 24.152344 50.167969 24.699219 50.097656 24.957031 C 50.097656 24.957031 49.972656 25.5625 49.90625 25.835938 C 49.902344 25.84375 49.796875 26.3125 49.753906 26.542969 C 49.644531 26.957031 49.539062 27.371094 49.429688 27.785156 C 49.429688 27.785156 49.019531 29.507812 48.835938 30.269531 C 48.804688 30.367188 48.023438 32.847656 47.691406 33.046875 L 47.132812 33.3125 C 47.0625 33.382812 47.03125 33.488281 47.058594 33.59375 C 47.15625 33.984375 47.511719 34.335938 47.753906 34.660156 Z M 51.648438 24.785156 L 51.953125 23.101562 L 52.527344 19.8125 L 52.546875 19.8125 L 52.949219 19.777344 L 53.847656 19.796875 L 53.847656 19.8125 L 54.917969 25.625 L 55.023438 26.277344 C 55.0625 26.527344 55.109375 26.765625 55.007812 27 C 54.878906 27.292969 53.425781 28.953125 53.132812 28.875 C 52.890625 28.8125 52.65625 28.457031 52.460938 28.292969 C 52.023438 27.917969 51.429688 27.339844 51.332031 26.789062 C 51.257812 26.367188 51.546875 25.222656 51.648438 24.785156 Z M 72.914062 44.03125 C 72.542969 44.035156 66.410156 44.074219 65.816406 44.074219 C 65.511719 44.074219 65.074219 44.308594 65.222656 44.679688 C 65.347656 45.007812 65.820312 45.140625 66.078125 45.328125 C 66.355469 45.53125 66.582031 45.816406 66.757812 46.09375 C 67.621094 47.464844 67.441406 49.554688 67.441406 51.324219 L 67.421875 52.828125 L 67.347656 54.820312 L 67.367188 54.820312 L 67.328125 54.839844 L 67.328125 54.855469 L 67.3125 55.410156 C 67.277344 56.414062 67.164062 57.398438 67.085938 58.375 L 66.90625 59.921875 L 66.753906 61.222656 C 66.71875 61.476562 66.679688 61.734375 66.644531 61.988281 L 66.390625 63.363281 C 66.367188 63.535156 66.339844 63.707031 66.316406 63.878906 L 66.332031 63.878906 C 66.324219 63.886719 66.308594 63.890625 66.296875 63.898438 L 66.316406 63.917969 L 66.066406 65.007812 L 66.085938 65.027344 L 66.046875 65.066406 L 65.894531 65.773438 L 65.78125 66.15625 L 65.378906 67.703125 L 65.339844 67.722656 L 65.136719 68.414062 C 64.960938 68.953125 64.738281 69.476562 64.542969 70 C 63.488281 72.851562 61.523438 75.417969 58.972656 77.304688 C 57.191406 78.621094 54.300781 78.761719 54.054688 78.792969 C 52.914062 78.792969 51.898438 78.761719 50.921875 78.4375 C 48.5625 77.652344 46.523438 75.664062 45.132812 73.578125 C 40.203125 66.183594 38.738281 56.71875 38.457031 47.019531 L 38.4375 43.273438 C 38.476562 42.476562 38.511719 41.679688 38.546875 40.882812 C 38.59375 40.164062 38.832031 37.050781 38.894531 36.386719 C 38.9375 36.066406 39.195312 33.996094 39.300781 33.304688 C 39.46875 32.226562 39.929688 29.863281 39.953125 29.753906 L 40.355469 27.976562 C 40.441406 27.65625 40.730469 26.5625 40.789062 26.335938 C 41.097656 25.308594 41.402344 24.292969 41.746094 23.296875 L 42.683594 20.921875 C 43.054688 19.929688 43.601562 19 44.105469 18.066406 C 45.972656 14.601562 49.296875 10.644531 53.863281 11.160156 C 60.015625 11.855469 63.394531 18.9375 64.925781 24.027344 C 65.28125 25.214844 65.625 26.453125 65.847656 27.691406 C 65.96875 28.347656 66.167969 30.28125 66.605469 30.667969 C 66.703125 30.753906 66.847656 30.804688 66.96875 30.726562 L 67.015625 30.683594 C 67.039062 30.65625 67.0625 30.628906 67.082031 30.601562 L 67.121094 30.523438 C 67.332031 30.078125 67.285156 29.429688 67.285156 28.894531 L 67.289062 26.90625 L 67.308594 16.738281 L 67.308594 14.347656 C 67.308594 13.859375 67.355469 13.300781 67.222656 12.878906 L 67.140625 12.691406 C 66.269531 11.277344 65.410156 15.769531 64.292969 15.433594 C 64.03125 15.355469 63.839844 15.03125 63.660156 14.839844 L 62.324219 13.398438 C 60.28125 11.359375 57.878906 9.847656 55.03125 9.355469 C 43.984375 7.433594 38.714844 17.066406 37.308594 19.496094 C 36.710938 20.523438 36.234375 21.617188 35.726562 22.691406 C 35.339844 23.503906 35 24.390625 34.726562 25.261719 C 34.550781 25.773438 34.210938 26.878906 34.207031 26.886719 C 34.148438 27.054688 33.582031 29.046875 33.5 29.351562 C 33.46875 29.515625 32.65625 33.585938 32.597656 33.902344 L 32.332031 35.777344 C 32.304688 36.011719 31.746094 42.691406 31.777344 44.609375 C 31.828125 47.929688 31.976562 51.128906 32.378906 54.25 C 32.527344 55.414062 32.683594 56.582031 32.945312 57.703125 C 33.003906 58.007812 33.535156 60.5 33.804688 61.414062 C 34.230469 62.851562 34.699219 64.242188 35.195312 65.632812 C 35.5 66.480469 35.867188 67.289062 36.257812 68.09375 C 37.894531 71.445312 39.917969 74.648438 42.972656 77.179688 C 43.671875 77.757812 51.75 83.886719 59.195312 79.496094 C 61.175781 78.324219 63.0625 76.945312 64.648438 75.132812 C 65.183594 74.527344 65.617188 73.851562 66.089844 73.210938 C 66.523438 72.625 66.898438 71.964844 67.25 71.332031 C 67.492188 70.894531 67.722656 70.375 68.148438 70.050781 C 68.523438 69.757812 68.921875 69.933594 69.179688 70.289062 C 69.457031 70.679688 69.589844 71.195312 69.761719 71.640625 L 70.972656 74.929688 C 71.125 75.367188 71.257812 75.878906 71.535156 76.253906 C 71.738281 76.519531 72.09375 76.824219 72.433594 76.550781 L 72.488281 76.492188 C 72.609375 76.359375 72.65625 76.179688 72.679688 76 C 72.777344 75.113281 72.691406 74.171875 72.71875 73.265625 L 72.722656 67.816406 C 72.734375 63.09375 72.75 58.367188 72.761719 53.644531 L 72.773438 50.644531 C 72.796875 49.398438 72.730469 47.476562 73.292969 46.539062 C 73.300781 46.515625 73.300781 46.492188 73.304688 46.464844 C 73.417969 46.210938 73.558594 45.980469 73.742188 45.761719 C 73.886719 45.585938 74.046875 45.425781 74.230469 45.296875 C 74.492188 45.113281 74.957031 44.980469 75.042969 44.625 C 75.21875 43.882812 73.402344 44.039062 72.914062 44.03125 Z M 47.785156 64.703125 L 47.800781 64.703125 L 47.863281 53.660156 L 47.929688 53.574219 L 47.964844 53.550781 C 48.585938 53.242188 48.792969 53.417969 49.289062 53.808594 C 51.183594 55.304688 50.617188 58.679688 50.058594 60.746094 L 49.582031 63.078125 L 49.601562 63.097656 L 49.5625 63.113281 L 49.5625 63.132812 L 49.484375 63.898438 C 49.191406 65.628906 49.589844 67.691406 51.070312 68.511719 C 51.277344 68.625 51.574219 68.832031 51.847656 68.78125 C 52.257812 68.707031 51.945312 68.140625 51.816406 67.949219 C 50.585938 66.109375 50.78125 63.511719 51.046875 61.183594 L 51.378906 58.910156 L 51.46875 58.148438 C 51.800781 56.320312 50.824219 53.847656 49.179688 53.175781 L 49.179688 53.15625 L 49.160156 53.15625 L 49.160156 53.132812 C 49.367188 53.132812 50.105469 52.375 50.261719 52.1875 C 52.828125 49.019531 51.253906 44.898438 48.753906 42.316406 C 48.253906 41.800781 47.574219 41.027344 46.84375 40.957031 L 46.65625 41.207031 C 46.648438 41.261719 46.640625 41.320312 46.636719 41.378906 L 46.613281 55.160156 L 46.597656 59.578125 C 46.585938 60.285156 46.511719 61.113281 46.625 61.792969 C 46.789062 62.808594 47.253906 63.855469 47.785156 64.703125 Z M 47.839844 52.484375 L 47.84375 51.546875 L 47.875 43.90625 C 47.890625 43.808594 47.949219 43.742188 48.011719 43.671875 C 48.460938 43.714844 48.785156 44.019531 49.066406 44.339844 C 50.113281 45.539062 50.371094 47.070312 50.289062 48.796875 C 50.261719 49.40625 50.230469 49.996094 50.058594 50.535156 L 50.078125 50.554688 C 50.070312 50.5625 50.066406 50.566406 50.058594 50.574219 L 49.972656 50.800781 C 49.75 51.410156 49.390625 51.832031 48.808594 52.136719 L 48.679688 52.21875 C 48.480469 52.21875 48.085938 52.40625 47.933594 52.523438 L 47.839844 52.523438 Z M 43.117188 61.242188 C 43.292969 62.050781 43.515625 62.839844 43.734375 63.628906 C 44.808594 67.523438 47.46875 74.863281 51.898438 76.03125 C 52.460938 76.179688 53.226562 76.246094 53.839844 76.125 L 54.6875 75.90625 C 55.144531 75.90625 56.402344 74.976562 56.777344 74.648438 C 60.175781 71.648438 61.695312 66.769531 62.878906 62.574219 L 63.480469 60 L 63.714844 58.796875 L 64 57.324219 L 64.25 55.449219 L 64.402344 54.359375 L 64.703125 51.375 C 64.925781 48.585938 64.964844 45.722656 64.917969 42.832031 C 64.902344 41.738281 64.917969 40.597656 64.765625 39.542969 L 64.648438 38.300781 L 64.628906 37.917969 C 64.542969 36.867188 64.5 35.746094 64.265625 34.746094 C 64.265625 34.074219 64.0625 33.152344 63.933594 32.5 C 63.699219 31.332031 63.5 30.171875 63.242188 29.023438 C 62.308594 24.867188 60.847656 20.222656 58.164062 16.964844 C 57.441406 16.085938 56.578125 15.242188 55.601562 14.734375 C 55.058594 14.449219 54.484375 14.21875 53.84375 14.136719 C 53.160156 13.980469 51.980469 14.214844 51.125 14.609375 C 48.871094 15.644531 46.894531 18.707031 45.964844 20.847656 L 45.792969 21.210938 C 45.296875 22.210938 44.835938 23.324219 44.511719 24.402344 L 44.417969 24.6875 C 44.136719 25.644531 43.371094 28.257812 43.289062 28.570312 L 42.902344 30.308594 L 42.410156 32.871094 C 42.414062 32.890625 42.101562 34.972656 42.066406 35.164062 L 42.007812 35.644531 L 41.664062 38.742188 L 41.644531 39.046875 L 41.585938 39.734375 L 41.476562 42.027344 C 41.40625 43.488281 41.390625 44.988281 41.414062 46.5 C 41.46875 49.921875 41.753906 53.21875 42.214844 56.425781 C 42.347656 57.359375 42.511719 58.25 42.679688 59.15625 C 42.785156 59.734375 42.835938 60.390625 43.058594 60.917969 L 43.058594 60.957031 C 43.082031 61.050781 43.097656 61.144531 43.117188 61.242188 Z M 61.324219 36.253906 C 61.625 36.316406 61.734375 36.550781 61.757812 36.847656 C 62.003906 39.996094 62.03125 43.207031 62.03125 46.445312 C 62.03125 47.296875 61.980469 48.117188 61.957031 48.929688 C 61.933594 49.242188 61.914062 49.554688 61.894531 49.867188 C 61.894531 51.203125 61.789062 52.582031 61.617188 53.886719 L 61.457031 55.277344 L 61.46875 55.351562 C 61.433594 55.621094 61.394531 55.886719 61.359375 56.15625 L 61.1875 57.382812 L 61.113281 58.183594 L 61.113281 58.203125 L 61.035156 58.660156 L 61.035156 58.679688 L 61.015625 58.699219 L 60.996094 58.699219 L 60.710938 60.363281 C 60.710938 60.8125 60.554688 61.257812 60.464844 61.683594 C 60.28125 62.511719 60.113281 63.34375 59.886719 64.148438 L 59.90625 64.167969 C 59.902344 64.171875 59.894531 64.179688 59.886719 64.1875 L 59.820312 64.433594 C 59.644531 65.160156 59.40625 65.871094 59.179688 66.574219 L 59.199219 66.59375 L 59.160156 66.632812 L 58.855469 67.550781 L 58.796875 67.722656 C 58.582031 68.238281 58.433594 68.785156 58.167969 69.269531 L 58.1875 69.292969 L 57.851562 69.984375 C 57.011719 71.921875 55.6875 73.847656 53.558594 74.507812 L 53.558594 66.730469 L 53.597656 51.550781 L 53.605469 46.941406 L 53.636719 45.015625 C 53.660156 44.917969 55.191406 43.09375 55.296875 43.042969 L 55.339844 42.980469 L 59.882812 37.738281 C 60.171875 37.367188 60.863281 36.375 61.300781 36.261719 Z M 45.335938 31.589844 L 45.535156 30.230469 C 45.6875 29.449219 45.835938 28.664062 45.984375 27.882812 L 46.054688 27.542969 L 46.527344 25.511719 C 47.203125 22.859375 48.179688 19.78125 49.757812 17.597656 C 50.199219 16.984375 50.679688 16.332031 51.328125 15.886719 C 51.644531 15.667969 51.941406 15.511719 52.296875 15.375 C 52.488281 15.320312 53.214844 14.996094 54.378906 15.464844 C 55.042969 15.730469 55.632812 16.257812 56.117188 16.820312 C 57.894531 18.902344 58.722656 21.449219 59.554688 24.007812 L 60.15625 26.277344 L 60.367188 27.195312 C 60.398438 27.347656 60.425781 27.503906 60.453125 27.660156 L 60.976562 30.40625 L 61.167969 31.589844 L 61.167969 31.667969 L 61.226562 32.105469 C 61.386719 33.347656 60.722656 33.824219 60.082031 34.710938 L 59.5625 35.375 L 53.195312 43.652344 L 53.089844 43.585938 L 47.722656 36.449219 L 46.03125 34.234375 C 45.792969 33.914062 45.5 33.605469 45.332031 33.253906 C 45.136719 32.84375 45.125 32.007812 45.335938 31.589844 Z M 44.507812 39.410156 L 44.625 37.574219 L 44.710938 36.675781 C 44.761719 36.476562 44.890625 36.375 45.046875 36.253906 C 45.457031 36.28125 45.582031 36.59375 45.851562 36.847656 L 51.226562 43.234375 L 51.207031 43.253906 L 51.675781 43.777344 L 52.664062 45.003906 L 52.667969 50.480469 L 52.621094 74.472656 L 52.601562 74.472656 L 52.601562 74.488281 L 52.582031 74.488281 L 52.582031 74.507812 C 52.183594 74.507812 51.449219 74.046875 51.140625 73.808594 C 49.824219 72.78125 49.015625 71.308594 48.382812 69.867188 C 47.203125 67.1875 46.429688 64.34375 45.8125 61.375 L 45.429688 59.160156 L 45.207031 57.835938 L 44.914062 55.507812 L 44.609375 52.503906 L 44.628906 52.257812 L 44.480469 50.496094 L 44.363281 47.667969 C 44.265625 44.914062 44.378906 42.105469 44.507812 39.410156 Z M 59.878906 48.71875 C 59.84375 48.152344 59.808594 47.585938 59.773438 47.019531 L 59.640625 45.738281 C 59.574219 45.378906 59.511719 45.023438 59.449219 44.667969 C 59.449219 44 58.988281 42.582031 58.464844 42.191406 C 58.316406 42.078125 58.171875 42.054688 57.976562 42.046875 C 57.480469 42.394531 57.097656 42.90625 56.738281 43.390625 C 56.238281 44.027344 55.738281 44.660156 55.238281 45.296875 C 55.109375 45.492188 55.0625 45.707031 54.953125 45.910156 L 54.972656 45.929688 L 54.882812 46.691406 L 54.878906 48.144531 L 54.851562 62.3125 L 54.839844 66.613281 C 54.828125 67.253906 54.738281 68.070312 54.914062 68.648438 C 54.953125 68.707031 54.988281 68.765625 55.023438 68.824219 C 55.175781 68.910156 55.613281 68.457031 55.726562 68.339844 C 57.347656 66.667969 58.285156 64.457031 58.871094 62.253906 L 59.246094 60.660156 L 59.390625 59.941406 L 59.488281 59.347656 L 59.6875 57.953125 L 59.859375 56.058594 C 60.007812 54.542969 59.945312 52.949219 59.945312 51.417969 C 59.945312 50.492188 59.929688 49.597656 59.878906 48.71875 Z M 58.9375 55.410156 C 58.882812 56.085938 58.898438 57.179688 58.683594 57.761719 L 58.511719 58.988281 L 58.433594 59.273438 L 58.339844 59.691406 L 58.113281 60.726562 C 57.882812 61.664062 57.5625 62.546875 57.214844 63.421875 C 57.132812 63.632812 56.636719 64.773438 56.265625 64.4375 L 56.160156 64.222656 C 56.019531 63.675781 56.125 62.917969 56.125 62.328125 L 56.136719 58.601562 L 56.175781 45.65625 C 56.265625 45.160156 56.660156 44.914062 57.039062 44.648438 C 57.492188 44.660156 57.757812 44.878906 57.96875 45.246094 C 58.40625 46 58.535156 46.976562 58.671875 47.878906 C 59.011719 50.152344 59.125 53.011719 58.9375 55.410156 Z M 58.9375 55.410156 " fill-opacity="1" fill-rule="nonzero"/></g></svg>